<?xml version="1.0" encoding="UTF-8"?>
<svg version="1.1" xmlns="http://www.w3.org/2000/svg" width="256" height="256">
<path d="M0 0 C2.24140394 0.00119654 4.4828084 0.00164396 6.72421265 0.00138855 C11.38844002 0.00293987 16.05258917 0.01112483 20.71679688 0.0246582 C26.6480652 0.0416655 32.57924824 0.04547101 38.5105381 0.04471302 C43.12806997 0.04498694 47.74558378 0.05050317 52.36310959 0.05771446 C54.54843383 0.06086029 56.73376008 0.06285878 58.91908646 0.06360817 C106.66084596 0.09793088 106.66084596 0.09793088 121.2109375 12.23046875 C138.38658896 29.9346018 137.6833615 50.25659012 137.61391401 73.63286638 C137.60620479 77.0495524 137.61339338 80.46621683 137.61807251 83.88290405 C137.62349637 89.61338717 137.61642638 95.34375346 137.60205078 101.07421875 C137.58571507 107.66132886 137.59103301 114.24816041 137.60753 120.83526385 C137.62122315 126.53514509 137.62302708 132.23494339 137.61521399 137.93483579 C137.61058213 141.31987079 137.60978692 144.70477561 137.61982346 148.08980179 C137.70044683 187.69057336 137.70044683 187.69057336 123.8203125 202.6796875 C106.42501036 219.44166554 82.95128156 217.54541355 60.49609375 217.53125 C57.91027255 217.53514531 55.32445197 217.53948168 52.7386322 217.54423523 C47.34013511 217.55166217 41.94171026 217.55157252 36.54321289 217.54614258 C30.34641148 217.54010459 24.14983722 217.55242665 17.95307451 217.57371265 C11.93614734 217.59360301 5.91933722 217.596485 -0.09762764 217.59297752 C-2.63267106 217.59348699 -5.16771841 217.59865333 -7.70274162 217.60878944 C-48.6281117 217.75239784 -48.6281117 217.75239784 -63.7890625 204.23046875 C-63.7890625 203.57046875 -63.7890625 202.91046875 -63.7890625 202.23046875 C-64.4490625 202.23046875 -65.1090625 202.23046875 -65.7890625 202.23046875 C-81.04145864 185.84503747 -79.24351179 163.40152117 -79.1875 142.54296875 C-79.18952541 139.86889135 -79.19243761 137.19482626 -79.19619751 134.52075195 C-79.20162096 128.93989531 -79.19455406 123.35915864 -79.18017578 117.77832031 C-79.16385581 111.37074699 -79.16914676 104.96346029 -79.185655 98.5558939 C-79.19936816 93.006298 -79.20114205 87.45678724 -79.19333899 81.90717983 C-79.18871589 78.61373435 -79.18910453 75.32044929 -79.19794846 72.02700806 C-79.28513828 30.44318926 -79.28513828 30.44318926 -64.10546875 14.48828125 C-46.95532655 -2.22804622 -22.379124 -0.0802039 0 0 Z " fill="#185685" transform="translate(98.7890625,21.76953125)"/>
<path d="M0 0 C2.24140394 0.00119654 4.4828084 0.00164396 6.72421265 0.00138855 C11.38844002 0.00293987 16.05258917 0.01112483 20.71679688 0.0246582 C26.6480652 0.0416655 32.57924824 0.04547101 38.5105381 0.04471302 C43.12806997 0.04498694 47.74558378 0.05050317 52.36310959 0.05771446 C54.54843383 0.06086029 56.73376008 0.06285878 58.91908646 0.06360817 C106.66084596 0.09793088 106.66084596 0.09793088 121.2109375 12.23046875 C138.38658896 29.9346018 137.6833615 50.25659012 137.61391401 73.63286638 C137.60620479 77.0495524 137.61339338 80.46621683 137.61807251 83.88290405 C137.62349637 89.61338717 137.61642638 95.34375346 137.60205078 101.07421875 C137.58571507 107.66132886 137.59103301 114.24816041 137.60753 120.83526385 C137.62122315 126.53514509 137.62302708 132.23494339 137.61521399 137.93483579 C137.61058213 141.31987079 137.60978692 144.70477561 137.61982346 148.08980179 C137.70044683 187.69057336 137.70044683 187.69057336 123.8203125 202.6796875 C106.42501036 219.44166554 82.95128156 217.54541355 60.49609375 217.53125 C57.91027255 217.53514531 55.32445197 217.53948168 52.7386322 217.54423523 C47.34013511 217.55166217 41.94171026 217.55157252 36.54321289 217.54614258 C30.34641148 217.54010459 24.14983722 217.55242665 17.95307451 217.57371265 C11.93614734 217.59360301 5.91933722 217.596485 -0.09762764 217.59297752 C-2.63267106 217.59348699 -5.16771841 217.59865333 -7.70274162 217.60878944 C-48.6281117 217.75239784 -48.6281117 217.75239784 -63.7890625 204.23046875 C-63.7890625 203.57046875 -63.7890625 202.91046875 -63.7890625 202.23046875 C-64.4490625 202.23046875 -65.1090625 202.23046875 -65.7890625 202.23046875 C-81.04145864 185.84503747 -79.24351179 163.40152117 -79.1875 142.54296875 C-79.18952541 139.86889135 -79.19243761 137.19482626 -79.19619751 134.52075195 C-79.20162096 128.93989531 -79.19455406 123.35915864 -79.18017578 117.77832031 C-79.16385581 111.37074699 -79.16914676 104.96346029 -79.185655 98.5558939 C-79.19936816 93.006298 -79.20114205 87.45678724 -79.19333899 81.90717983 C-79.18871589 78.61373435 -79.18910453 75.32044929 -79.19794846 72.02700806 C-79.28513828 30.44318926 -79.28513828 30.44318926 -64.10546875 14.48828125 C-46.95532655 -2.22804622 -22.379124 -0.0802039 0 0 Z M-51.7890625 26.23046875 C-58.27140808 34.33664839 -60.06829563 42.60663384 -60.203125 52.71484375 C-60.22258179 53.65555725 -60.24203857 54.59627075 -60.26208496 55.56549072 C-60.32316951 58.70372525 -60.36931259 61.84196145 -60.4140625 64.98046875 C-60.45160432 67.20182386 -60.48920337 69.42317801 -60.52685547 71.64453125 C-60.82159061 90.42661421 -60.89323862 109.21041968 -60.91155243 127.99452209 C-60.91405123 130.22043138 -60.91801262 132.44633449 -60.92218018 134.67224121 C-60.92810075 138.21430624 -60.92806788 141.75632664 -60.92350769 145.29839325 C-60.92193238 147.22287486 -60.92481025 149.14735853 -60.92785645 151.07183838 C-60.89082532 165.13188353 -60.76222744 176.73464502 -50.6953125 187.44140625 C-41.31981475 196.24054143 -30.10843835 196.53647468 -17.77514648 196.48925781 C-16.62892822 196.49276245 -15.48270996 196.49626709 -14.30175781 196.49987793 C-10.54616074 196.5086171 -6.79075495 196.50287413 -3.03515625 196.49609375 C-0.40682438 196.49744255 2.22150724 196.49938487 4.84983826 196.50189209 C10.344493 196.50551625 15.83909372 196.50077303 21.33374023 196.49121094 C27.66231758 196.48032393 33.99076605 196.48385998 40.31934029 196.49486375 C46.43985406 196.50507471 52.56031124 196.50394155 58.68083 196.49810028 C61.27106685 196.49677069 63.86130702 196.49838719 66.45153999 196.50305939 C70.07658608 196.50816451 73.70138801 196.50035855 77.32641602 196.48925781 C78.91567146 196.49533051 78.91567146 196.49533051 80.53703308 196.50152588 C92.56633342 196.43362607 101.18241633 194.59025684 110.22265625 186.41015625 C118.06472994 178.28859566 118.65748453 168.62823076 118.58325195 157.76342773 C118.58690262 156.55722778 118.59055328 155.35102783 118.59431458 154.10827637 C118.60098887 150.82930717 118.59436963 147.55071518 118.58098245 144.27177691 C118.56957824 140.82336109 118.57378227 137.37495823 118.57572937 133.92652893 C118.57660942 128.13920202 118.56559189 122.35199289 118.54711914 116.56469727 C118.52594594 109.89358996 118.52244553 103.22265488 118.5286811 96.55152076 C118.53439429 90.1069008 118.52870677 83.66234088 118.51750755 77.21772957 C118.51288841 74.48710064 118.51197597 71.75650875 118.5140934 69.025877 C118.51446552 65.20652389 118.50180251 61.38742938 118.4855957 57.56811523 C118.48807312 56.44734085 118.49055054 55.32656647 118.49310303 54.17182922 C118.41958408 43.27921543 117.0751806 34.37806813 109.3515625 26.28125 C99.64129903 17.30490179 89.31601053 17.07976424 76.75292969 17.08520508 C75.62986923 17.08184647 74.50680878 17.07848785 73.34971619 17.07502747 C69.65240357 17.06556121 65.95513646 17.06357649 62.2578125 17.0625 C59.67482485 17.05928428 57.09183737 17.05591997 54.5088501 17.05241394 C49.09883118 17.04643339 43.68883016 17.04452994 38.27880859 17.04516602 C32.05315609 17.04576592 25.82759048 17.03522601 19.60195994 17.01942235 C13.58238156 17.00469418 7.56284981 17.00118004 1.54325104 17.00177574 C-1.00346989 17.00060048 -3.55019156 16.99620437 -6.09690094 16.98844337 C-9.66916483 16.9785766 -13.24120865 16.98154796 -16.81347656 16.98754883 C-17.8518013 16.98192932 -18.89012604 16.97630981 -19.95991516 16.97052002 C-31.88615475 17.02108091 -42.54893182 18.10990156 -51.7890625 26.23046875 Z " fill="#2D86C0" transform="translate(98.7890625,21.76953125)"/>
<path d="M0 0 C0.89203125 0.44601563 1.7840625 0.89203125 2.703125 1.3515625 C18.20370918 9.86261946 29.79024953 24.59640699 34.8125 41.5 C38.83743426 59.79941042 35.02040679 77.48047684 25.0234375 93.26171875 C15.91491008 105.58812362 2.28154292 115.85072999 -13.125 118.546875 C-26.16992279 120.07228936 -38.66937828 119.81466286 -51 115 C-52.31484375 114.49146484 -52.31484375 114.49146484 -53.65625 113.97265625 C-69.37018191 106.98592387 -79.50262313 93.53395848 -86 78 C-88.63931726 70.8950522 -89.55042977 64.37313613 -89.5 56.8125 C-89.49427979 55.80799805 -89.48855957 54.80349609 -89.48266602 53.76855469 C-89.09605623 37.52834018 -82.34484796 24.03750031 -71.3515625 12.1953125 C-52.67671486 -5.23868148 -23.4288623 -12.23219606 0 0 Z " fill="#34C5FC" transform="translate(155,71)"/>
<path d="M0 0 C2.24140394 0.00119654 4.4828084 0.00164396 6.72421265 0.00138855 C11.38844002 0.00293987 16.05258917 0.01112483 20.71679688 0.0246582 C26.6480652 0.0416655 32.57924824 0.04547101 38.5105381 0.04471302 C43.12806997 0.04498694 47.74558378 0.05050317 52.36310959 0.05771446 C54.54843383 0.06086029 56.73376008 0.06285878 58.91908646 0.06360817 C106.66084596 0.09793088 106.66084596 0.09793088 121.2109375 12.23046875 C138.38658896 29.9346018 137.6833615 50.25659012 137.61391401 73.63286638 C137.60620479 77.0495524 137.61339338 80.46621683 137.61807251 83.88290405 C137.62349637 89.61338717 137.61642638 95.34375346 137.60205078 101.07421875 C137.58571507 107.66132886 137.59103301 114.24816041 137.60753 120.83526385 C137.62122315 126.53514509 137.62302708 132.23494339 137.61521399 137.93483579 C137.61058213 141.31987079 137.60978692 144.70477561 137.61982346 148.08980179 C137.70044683 187.69057336 137.70044683 187.69057336 123.8203125 202.6796875 C106.42501036 219.44166554 82.95128156 217.54541355 60.49609375 217.53125 C57.91027255 217.53514531 55.32445197 217.53948168 52.7386322 217.54423523 C47.34013511 217.55166217 41.94171026 217.55157252 36.54321289 217.54614258 C30.34641148 217.54010459 24.14983722 217.55242665 17.95307451 217.57371265 C11.93614734 217.59360301 5.91933722 217.596485 -0.09762764 217.59297752 C-2.63267106 217.59348699 -5.16771841 217.59865333 -7.70274162 217.60878944 C-48.6281117 217.75239784 -48.6281117 217.75239784 -63.7890625 204.23046875 C-63.7890625 203.57046875 -63.7890625 202.91046875 -63.7890625 202.23046875 C-64.4490625 202.23046875 -65.1090625 202.23046875 -65.7890625 202.23046875 C-81.04145864 185.84503747 -79.24351179 163.40152117 -79.1875 142.54296875 C-79.18952541 139.86889135 -79.19243761 137.19482626 -79.19619751 134.52075195 C-79.20162096 128.93989531 -79.19455406 123.35915864 -79.18017578 117.77832031 C-79.16385581 111.37074699 -79.16914676 104.96346029 -79.185655 98.5558939 C-79.19936816 93.006298 -79.20114205 87.45678724 -79.19333899 81.90717983 C-79.18871589 78.61373435 -79.18910453 75.32044929 -79.19794846 72.02700806 C-79.28513828 30.44318926 -79.28513828 30.44318926 -64.10546875 14.48828125 C-46.95532655 -2.22804622 -22.379124 -0.0802039 0 0 Z M-63.7890625 19.23046875 C-72.33259406 30.6032308 -73.93211274 43.03843388 -73.96606445 56.87280273 C-73.97263565 58.03952011 -73.97920685 59.20623749 -73.98597717 60.40830994 C-74.00566399 64.26439485 -74.01736458 68.12044083 -74.02734375 71.9765625 C-74.0313961 73.3116616 -74.03551315 74.6467605 -74.03969383 75.98185921 C-74.05872865 82.26148675 -74.0729593 88.54110271 -74.0813058 94.82075351 C-74.09105091 102.03077717 -74.11730569 109.2404916 -74.15780669 116.45040649 C-74.18814957 122.04732098 -74.202792 127.64414779 -74.20608681 133.24114281 C-74.20841808 136.57230864 -74.21915444 139.90288302 -74.24254799 143.23400688 C-74.37359217 163.13616817 -74.40678954 181.25456258 -59.9140625 196.54296875 C-46.74696324 208.93553276 -31.90301743 209.37336761 -14.58569336 209.39160156 C-12.85392601 209.39904892 -12.85392601 209.39904892 -11.08717346 209.40664673 C-7.30941145 209.42112284 -3.53169131 209.42804345 0.24609375 209.43359375 C2.22292267 209.4378959 4.19975159 209.44219863 6.17658037 209.44656825 C11.6741837 209.45832333 17.17177708 209.46589767 22.66939169 209.46936345 C29.74123852 209.47384901 36.81289256 209.49144268 43.88468081 209.52036405 C49.38314226 209.54205897 54.88154971 209.55207166 60.38005346 209.55340457 C63.650515 209.55444584 66.920754 209.56168884 70.19117928 209.57822418 C73.83992135 209.59536628 77.48819638 209.593385 81.13696289 209.58691406 C82.20065094 209.59612885 83.26433899 209.60534363 84.36026001 209.61483765 C97.65813879 209.54132941 109.80224897 205.75586313 119.5234375 196.48046875 C130.89010305 184.47141708 132.36279443 171.21773094 132.35620117 155.31347656 C132.35955978 154.14164825 132.3629184 152.96981995 132.36637878 151.76248169 C132.37584867 147.90284148 132.37782994 144.04324484 132.37890625 140.18359375 C132.3803312 138.84656505 132.38192744 137.50953653 132.38369179 136.17250824 C132.39292588 129.1690376 132.39702919 122.1655859 132.39624023 115.16210938 C132.39564028 108.66380053 132.40618099 102.16557492 132.4219839 95.66728711 C132.4351191 90.06358367 132.44042162 84.45990723 132.43978482 78.85618854 C132.43953155 75.52028308 132.44322755 72.18451025 132.45296288 68.84860992 C132.46282339 65.12068388 132.45986071 61.39296893 132.45385742 57.66503906 C132.45947693 56.57996063 132.46509644 55.4948822 132.47088623 54.37692261 C132.40737823 38.75974893 129.5202574 27.00743361 118.6015625 15.4921875 C107.1121952 4.62234491 94.54549518 3.08473905 79.34741211 3.06933594 C78.16918884 3.06437103 76.99096558 3.05940613 75.77703857 3.05429077 C72.55966763 3.04223124 69.34233291 3.03473642 66.12494349 3.03028011 C64.10780932 3.02733576 62.09068065 3.02322839 60.07354927 3.01877594 C53.74213183 3.00511859 47.41072719 2.99544443 41.07929605 2.99157405 C33.80876908 2.98710335 26.53843103 2.96959421 19.26796144 2.94057345 C13.62348304 2.91883752 7.97905731 2.9088634 2.33453757 2.90753293 C-1.02498752 2.90649298 -4.38419422 2.89927506 -7.74370003 2.88271332 C-38.69440312 2.63003903 -38.69440312 2.63003903 -63.7890625 19.23046875 Z " fill="#101013" transform="translate(98.7890625,21.76953125)"/>
<path d="M0 0 C3.77371155 1.50948462 6.92485135 3.00321092 10.40234375 5.01953125 C11.44793457 5.624021 12.49352539 6.22851074 13.57080078 6.85131836 C15.23731689 7.82210327 15.23731689 7.82210327 16.9375 8.8125 C18.65042236 9.80552124 18.65042236 9.80552124 20.39794922 10.81860352 C31.30388927 17.14669598 42.16179507 23.55668552 53 30 C51.72550183 33.82349452 50.51923536 34.1362998 47.05859375 36.08203125 C46.01058594 36.67814209 44.96257812 37.27425293 43.8828125 37.88842773 C42.74585938 38.52337158 41.60890625 39.15831543 40.4375 39.8125 C38.67304376 40.80995048 36.9102795 41.81035015 35.14749146 42.81074524 C33.93431981 43.49878538 32.72050425 44.18569131 31.506073 44.87150574 C27.31413151 47.24124584 23.1527395 49.65706078 19.00390625 52.1015625 C17.90957275 52.74633545 16.81523926 53.3911084 15.68774414 54.05541992 C13.58778849 55.29525741 11.48927923 56.53754846 9.39233398 57.7824707 C7.97609741 58.61524536 7.97609741 58.61524536 6.53125 59.46484375 C5.70173828 59.955896 4.87222656 60.44694824 4.01757812 60.95288086 C2 62 2 62 0 62 C0 41.54 0 21.08 0 0 Z " fill="#145D89" transform="translate(108,97)"/>
<path d="M0 0 C2.24140394 0.00119654 4.4828084 0.00164396 6.72421265 0.00138855 C11.38844002 0.00293987 16.05258917 0.01112483 20.71679688 0.0246582 C26.6480652 0.0416655 32.57924824 0.04547101 38.5105381 0.04471302 C43.12806997 0.04498694 47.74558378 0.05050317 52.36310959 0.05771446 C54.54843383 0.06086029 56.73376008 0.06285878 58.91908646 0.06360817 C106.7495607 0.09799466 106.7495607 0.09799466 121.2109375 12.23046875 C125.30374932 16.61124787 128.88788417 21.24588875 132.2109375 26.23046875 C131.8809375 27.22046875 131.5509375 28.21046875 131.2109375 29.23046875 C130.2209375 28.24046875 130.2209375 28.24046875 129.2109375 27.23046875 C128.5509375 27.56046875 127.8909375 27.89046875 127.2109375 28.23046875 C126.5921875 27.26947266 126.5921875 27.26947266 125.9609375 26.2890625 C118.82455664 15.60042063 110.71452652 8.68890827 98.2109375 5.23046875 C91.92249259 4.07476337 85.72871691 4.07580333 79.34741211 4.06933594 C78.16918884 4.06437103 76.99096558 4.05940613 75.77703857 4.05429077 C72.55966763 4.04223124 69.34233291 4.03473642 66.12494349 4.03028011 C64.10780932 4.02733576 62.09068065 4.02322839 60.07354927 4.01877594 C53.74213183 4.00511859 47.41072719 3.99544443 41.07929605 3.99157405 C33.80876908 3.98710335 26.53843103 3.96959421 19.26796144 3.94057345 C13.62348304 3.91883752 7.97905731 3.9088634 2.33453757 3.90753293 C-1.02498752 3.90649298 -4.38419422 3.89927506 -7.74370003 3.88271332 C-29.20053381 3.7845035 -46.52475992 3.74622864 -62.7890625 19.23046875 C-63.4490625 19.89046875 -64.1090625 20.55046875 -64.7890625 21.23046875 C-66.1090625 20.57046875 -67.4290625 19.91046875 -68.7890625 19.23046875 C-59.11259557 8.73047272 -48.65424351 2.38771353 -34.27587891 1.05737305 C-33.05308951 0.93770314 -33.05308951 0.93770314 -31.80559731 0.81561565 C-21.21952192 -0.12148649 -10.61816964 -0.03805415 0 0 Z " fill="#252929" transform="translate(98.7890625,21.76953125)"/>
<path d="M0 0 C0.66 0.33 1.32 0.66 2 1 C1.08810297 3.355734 0.15691314 5.67909977 -0.953125 7.94921875 C-5.6454871 17.70162803 -6.23237587 27.55368958 -6.55859375 38.203125 C-7.05625494 42.48389201 -8.03349613 45.19261658 -10 49 C-10.99 49.495 -10.99 49.495 -12 50 C-12.98146677 15.49263508 -12.98146677 15.49263508 -4 3 C-1.83984375 1.23828125 -1.83984375 1.23828125 0 0 Z " fill="#1C2021" transform="translate(32,41)"/>
<path d="M0 0 C0.33 0 0.66 0 1 0 C1.09878601 6.06888051 1.17142949 12.13729439 1.21972656 18.20678711 C1.23985731 20.27197418 1.26716445 22.33710416 1.30175781 24.40209961 C1.35021162 27.36847001 1.37295385 30.33408772 1.390625 33.30078125 C1.41127014 34.2258699 1.43191528 35.15095856 1.45318604 36.1040802 C1.45544041 42.52615962 1.45544041 42.52615962 -1.02441406 45.10620117 C-1.67635742 45.40115479 -2.32830078 45.6961084 -3 46 C-2.99476318 45.29915283 -2.98952637 44.59830566 -2.98413086 43.8762207 C-2.96329148 40.68832299 -2.95031768 37.50043964 -2.9375 34.3125 C-2.92912109 33.20970703 -2.92074219 32.10691406 -2.91210938 30.97070312 C-2.90888672 29.90400391 -2.90566406 28.83730469 -2.90234375 27.73828125 C-2.89710693 26.75899658 -2.89187012 25.77971191 -2.88647461 24.77075195 C-2.99710594 22.07063384 -3.41840056 19.63352504 -4 17 C-4.49607055 10.26266976 -3.80128404 5.70192605 0 0 Z " fill="#090909" transform="translate(24,83)"/>
<path d="M0 0 C1.36421031 2.72842061 0.87807211 4.60953318 0.5625 7.625 C0.40974609 9.12933594 0.40974609 9.12933594 0.25390625 10.6640625 C0.17011719 11.43492188 0.08632813 12.20578125 0 13 C0.66 12.67 1.32 12.34 2 12 C2.5643982 28.24212598 2.5643982 28.24212598 -1 34 C-1.99 34.495 -1.99 34.495 -3 35 C-3.44154422 11.05132074 -3.44154422 11.05132074 -1 1 C-0.67 0.67 -0.34 0.34 0 0 Z " fill="#1C1C1C" transform="translate(23,56)"/>
<path d="M0 0 C1.45696289 -0.00580078 1.45696289 -0.00580078 2.94335938 -0.01171875 C3.88373047 -0.01042969 4.82410156 -0.00914063 5.79296875 -0.0078125 C6.63754639 -0.00668457 7.48212402 -0.00555664 8.35229492 -0.00439453 C10.92574947 0.13095636 13.29531956 0.58732738 15.8125 1.125 C18.08085684 1.34040083 20.35211354 1.52679086 22.625 1.6875 C23.78644531 1.77128906 24.94789062 1.85507812 26.14453125 1.94140625 C27.02496094 2.00199219 27.90539062 2.06257813 28.8125 2.125 C28.8125 2.455 28.8125 2.785 28.8125 3.125 C12.6425 3.125 -3.5275 3.125 -20.1875 3.125 C-19.8575 2.465 -19.5275 1.805 -19.1875 1.125 C-12.81327845 -0.04471777 -6.46427088 -0.0260481 0 0 Z " fill="#212020" transform="translate(86.1875,21.875)"/>
<path d="M0 0 C0.33 0 0.66 0 1 0 C1 15.18 1 30.36 1 46 C0.67 46 0.34 46 0 46 C-0.33 40.06 -0.66 34.12 -1 28 C-1.66 28.33 -2.32 28.66 -3 29 C-3.054138 26.75026553 -3.09285491 24.50015617 -3.125 22.25 C-3.14820313 20.99703125 -3.17140625 19.7440625 -3.1953125 18.453125 C-3.00683832 15.12090144 -2.52908861 13.82649712 -1 11 C-0.54724722 8.18503259 -0.54724722 8.18503259 -0.375 5.25 C-0.30023438 4.26515625 -0.22546875 3.2803125 -0.1484375 2.265625 C-0.09945312 1.51796875 -0.05046875 0.7703125 0 0 Z " fill="#151515" transform="translate(235,110)"/>
<path d="M0 0 C0.66 0.33 1.32 0.66 2 1 C2 1.66 2 2.32 2 3 C2.66 3 3.32 3 4 3 C6.13619737 9.20514474 7.36517527 14.42684522 7 21 C4.578125 20.359375 4.578125 20.359375 2 19 C1.109375 16.390625 1.109375 16.390625 0.75 13.25 C0.62109375 12.22390625 0.4921875 11.1978125 0.359375 10.140625 C0.24078125 9.10421875 0.1221875 8.0678125 0 7 C-0.20109375 5.90171875 -0.4021875 4.8034375 -0.609375 3.671875 C-0.80273438 2.34929688 -0.80273438 2.34929688 -1 1 C-0.67 0.67 -0.34 0.34 0 0 Z " fill="#1A2021" transform="translate(228,48)"/>
<path d="M0 0 C0.33 0 0.66 0 1 0 C2.05838127 6.00860549 2.11662571 11.84627561 2.0625 17.9375 C2.05798828 18.90751953 2.05347656 19.87753906 2.04882812 20.87695312 C2.0371315 23.2513676 2.02074086 25.62565021 2 28 C2.99 27.34 3.98 26.68 5 26 C5.1875 29.375 5.1875 29.375 5 33 C4.01 33.66 3.02 34.32 2 35 C1.95833998 37.3329614 1.95833998 39.6670386 2 42 C1.34 42.66 0.68 43.32 0 44 C0 29.48 0 14.96 0 0 Z " fill="#292929" transform="translate(20,100)"/>
<path d="M0 0 C25.85875037 0.42937519 25.85875037 0.42937519 37 6 C37 6.66 37 7.32 37 8 C31.9808037 7.4807728 27.79251077 6.59750359 23 5 C16.40268947 3.53628802 9.86049581 2.72580713 3.1171875 2.34375 C2.41851562 2.2303125 1.71984375 2.116875 1 2 C0.67 1.34 0.34 0.68 0 0 Z " fill="#2C3131" transform="translate(174,22)"/>
<path d="M0 0 C0.33 0 0.66 0 1 0 C1.2276125 3.20726702 1.42860225 6.4156823 1.625 9.625 C1.68945312 10.52863281 1.75390625 11.43226563 1.8203125 12.36328125 C2.11417457 17.39566926 2.05774314 21.27190317 0 26 C-0.66 26 -1.32 26 -2 26 C-2.05785647 22.04172765 -2.09354717 18.0835633 -2.125 14.125 C-2.14175781 12.99707031 -2.15851563 11.86914062 -2.17578125 10.70703125 C-2.18222656 9.63066406 -2.18867188 8.55429688 -2.1953125 7.4453125 C-2.20578613 6.45031738 -2.21625977 5.45532227 -2.22705078 4.43017578 C-2 2 -2 2 0 0 Z " fill="#0A0A0A" transform="translate(234,137)"/>
<path d="M0 0 C4.42997748 6.64496622 3.50246212 16.42329819 2 24 C1.01 24.66 0.02 25.32 -1 26 C-1.02886751 21.85418113 -1.04675327 17.70838784 -1.0625 13.5625 C-1.07087891 12.37849609 -1.07925781 11.19449219 -1.08789062 9.97460938 C-1.09111328 8.84990234 -1.09433594 7.72519531 -1.09765625 6.56640625 C-1.10289307 5.52427979 -1.10812988 4.48215332 -1.11352539 3.40844727 C-1 1 -1 1 0 0 Z " fill="#090909" transform="translate(233,99)"/>
<path d="M0 0 C1.23363281 -0.00257812 2.46726563 -0.00515625 3.73828125 -0.0078125 C6.6875 0.125 6.6875 0.125 7.6875 1.125 C9.53641946 1.35863881 11.39238031 1.53803635 13.25 1.6875 C14.26191406 1.77128906 15.27382812 1.85507812 16.31640625 1.94140625 C17.49009766 2.03228516 17.49009766 2.03228516 18.6875 2.125 C18.6875 2.455 18.6875 2.785 18.6875 3.125 C8.4575 3.125 -1.7725 3.125 -12.3125 3.125 C-12.6425 2.465 -12.9725 1.805 -13.3125 1.125 C-8.82473172 0.25639969 -4.56857233 -0.00964852 0 0 Z " fill="#232222" transform="translate(167.3125,21.875)"/>
<path d="M0 0 C1.15242188 0.19464844 2.30484375 0.38929688 3.4921875 0.58984375 C4.79542969 0.82380859 4.79542969 0.82380859 6.125 1.0625 C6.125 1.3925 6.125 1.7225 6.125 2.0625 C-4.765 2.0625 -15.655 2.0625 -26.875 2.0625 C-24.875 0.0625 -24.875 0.0625 -22.265625 -0.09765625 C-20.71101562 -0.04931641 -20.71101562 -0.04931641 -19.125 0 C-15.91540672 0.0927395 -13.07531861 0.10002671 -9.9140625 -0.4921875 C-6.36834281 -1.01174026 -3.5231736 -0.61116277 0 0 Z " fill="#242424" transform="translate(166.875,236.9375)"/>
<path d="M0 0 C-2.56822507 6.37775892 -9.54476195 10.85637552 -15.4375 14.0625 C-18 15 -18 15 -21 14 C-20.19949219 13.48953125 -20.19949219 13.48953125 -19.3828125 12.96875 C-13.99353227 9.46292065 -8.99982978 5.66182958 -4.06640625 1.5390625 C-2 0 -2 0 0 0 Z " fill="#2C2C2C" transform="translate(225,220)"/>
<path d="M0 0 C1.65 0 3.3 0 5 0 C4.77160737 2.10662151 4.51650087 4.21035951 4.25 6.3125 C4.11078125 7.48425781 3.9715625 8.65601563 3.828125 9.86328125 C3 13 3 13 0.921875 14.91796875 C0.28765625 15.27503906 -0.3465625 15.63210937 -1 16 C-1.11521265 10.58500559 -0.68201156 5.37084106 0 0 Z " fill="#0C1112" transform="translate(23,54)"/>
<path d="M0 0 C-1.04800781 0.93972656 -1.04800781 0.93972656 -2.1171875 1.8984375 C-3.02726562 2.71570312 -3.93734375 3.53296875 -4.875 4.375 C-5.77992187 5.18710937 -6.68484375 5.99921875 -7.6171875 6.8359375 C-9.10896183 8.19076205 -10.57505435 9.57505435 -12 11 C-13.32 10.34 -14.64 9.68 -16 9 C-14.59290434 7.51172574 -13.17393799 6.03466815 -11.75 4.5625 C-10.96109375 3.73878906 -10.1721875 2.91507813 -9.359375 2.06640625 C-5.92080598 -0.94518814 -4.33015698 -1.44338566 0 0 Z " fill="#22282A" transform="translate(46,32)"/>
<path d="M0 0 C8.91 0 17.82 0 27 0 C22.78622182 3.16033363 21.9510716 3.43052797 17 3 C16.34 2.67 15.68 2.34 15 2 C12.62597499 1.92883618 10.24999323 1.91590915 7.875 1.9375 C6.59367188 1.94652344 5.31234375 1.95554687 3.9921875 1.96484375 C3.00476563 1.97644531 2.01734375 1.98804687 1 2 C0.67 1.34 0.34 0.68 0 0 Z " fill="#383838" transform="translate(132,22)"/>
<path d="M0 0 C0.1875 3.375 0.1875 3.375 0 7 C-0.99 7.66 -1.98 8.32 -3 9 C-3.04166002 11.3329614 -3.04166002 13.6670386 -3 16 C-3.66 16.66 -4.32 17.32 -5 18 C-5.10823773 15.75106046 -5.18569645 13.50062425 -5.25 11.25 C-5.29640625 9.99703125 -5.3428125 8.7440625 -5.390625 7.453125 C-5 4 -5 4 -3.046875 1.546875 C-1 0 -1 0 0 0 Z " fill="#1B1B1B" transform="translate(25,126)"/>
<path d="M0 0 C0.33 0 0.66 0 1 0 C1 8.25 1 16.5 1 25 C0.67 25 0.34 25 0 25 C-0.12375 24.030625 -0.2475 23.06125 -0.375 22.0625 C-0.684375 20.5465625 -0.684375 20.5465625 -1 19 C-1.66 18.67 -2.32 18.34 -3 18 C-2 14 -2 14 -1.5 12.1875 C-0.93318215 9.70767193 -0.6707503 7.28243186 -0.4375 4.75 C-0.35371094 3.85796875 -0.26992187 2.9659375 -0.18359375 2.046875 C-0.12300781 1.37140625 -0.06242188 0.6959375 0 0 Z " fill="#1C1C1C" transform="translate(235,110)"/>
<path d="M0 0 C0.66 0.33 1.32 0.66 2 1 C2 4.96 2 8.92 2 13 C1.01 12.67 0.02 12.34 -1 12 C-1 10.35 -1 8.7 -1 7 C-1.66 6.67 -2.32 6.34 -3 6 C-2.01 4.02 -1.02 2.04 0 0 Z " fill="#070707" transform="translate(23,149)"/>
<path d="M0 0 C0.66 0.33 1.32 0.66 2 1 C2 1.66 2 2.32 2 3 C2.66 3.33 3.32 3.66 4 4 C4.40729228 6.32156597 4.74438677 8.6568787 5 11 C4.01 11 3.02 11 2 11 C-1.07692308 4.6 -1.07692308 4.6 -0.6875 1.5625 C-0.460625 1.046875 -0.23375 0.53125 0 0 Z " fill="#0F1212" transform="translate(228,48)"/>
<path d="M0 0 C2.475 0.495 2.475 0.495 5 1 C5 1.66 5 2.32 5 3 C5.928125 3.1546875 5.928125 3.1546875 6.875 3.3125 C9 4 9 4 11 7 C6.89188572 5.55007731 3.53144334 3.54592427 0 1 C0 0.67 0 0.34 0 0 Z " fill="#343434" transform="translate(38,227)"/>
<path d="M0 0 C1.98 0.99 1.98 0.99 4 2 C3.67 3.65 3.34 5.3 3 7 C2.01 7 1.02 7 0 7 C0 4.69 0 2.38 0 0 Z " fill="#090909" transform="translate(231,67)"/>
<path d="M0 0 C2.97 0 5.94 0 9 0 C6.44931155 2.35448165 5.28982642 2.98327924 1.75 3.1875 C0.8425 3.125625 -0.065 3.06375 -1 3 C-0.67 2.01 -0.34 1.02 0 0 Z " fill="#2F2E2E" transform="translate(150,22)"/>
<path d="M0 0 C0.66 0.33 1.32 0.66 2 1 C1.34 2.65 0.68 4.3 0 6 C-0.99 5.67 -1.98 5.34 -3 5 C-2.625 3.0625 -2.625 3.0625 -2 1 C-1.34 0.67 -0.68 0.34 0 0 Z " fill="#141819" transform="translate(32,41)"/>
<path d="M0 0 C0.66 0.66 1.32 1.32 2 2 C1.34 3.65 0.68 5.3 0 7 C-1.65 6.67 -3.3 6.34 -5 6 C-3.35 4.02 -1.7 2.04 0 0 Z " fill="#2E3132" transform="translate(35,36)"/>
<path d="M0 0 C2 1 2 1 4 3 C3.67 3.99 3.34 4.98 3 6 C1.02 4.68 -0.96 3.36 -3 2 C-2.01 1.34 -1.02 0.68 0 0 Z " fill="#162122" transform="translate(211,29)"/>
<path d="M0 0 C0.66 0.66 1.32 1.32 2 2 C-0.97 4.475 -0.97 4.475 -4 7 C-3.67 5.02 -3.34 3.04 -3 1 C-2.01 0.67 -1.02 0.34 0 0 Z " fill="#141718" transform="translate(39,34)"/>
<path d="M0 0 C3.37503669 1.1858237 5.64722731 2.27573689 8 5 C7.01 5.33 6.02 5.66 5 6 C4.34 5.67 3.68 5.34 3 5 C3 4.01 3 3.02 3 2 C2.01 1.67 1.02 1.34 0 1 C0 0.67 0 0.34 0 0 Z " fill="#404040" transform="translate(212,30)"/>
</svg>
